<?xml version="1.0" encoding="UTF-8" standalone="no"?>
<!-- Created with Inkscape (http://www.inkscape.org/) -->

<svg
   version="1.1"
   id="svg9"
   width="1920"
   height="1080"
   viewBox="0 0 1920 1080"
   sodipodi:docname="1.svg"
   inkscape:version="1.2.2 (732a01da63, 2022-12-09)"
   xmlns:inkscape="http://www.inkscape.org/namespaces/inkscape"
   xmlns:sodipodi="http://sodipodi.sourceforge.net/DTD/sodipodi-0.dtd"
   xmlns="http://www.w3.org/2000/svg"
   xmlns:svg="http://www.w3.org/2000/svg">
  <defs
     id="defs13" />
  <sodipodi:namedview
     id="namedview11"
     pagecolor="#ffffff"
     bordercolor="#000000"
     borderopacity="0.25"
     inkscape:showpageshadow="2"
     inkscape:pageopacity="0.0"
     inkscape:pagecheckerboard="0"
     inkscape:deskcolor="#d1d1d1"
     showgrid="false"
     inkscape:zoom="0.71759259"
     inkscape:cx="730.91613"
     inkscape:cy="540"
     inkscape:window-width="1920"
     inkscape:window-height="991"
     inkscape:window-x="-9"
     inkscape:window-y="-9"
     inkscape:window-maximized="1"
     inkscape:current-layer="g15" />
  <g
     inkscape:groupmode="layer"
     inkscape:label="Image"
     id="g15">
    <g
       id="g206"
       transform="translate(79.432256,75.251611)">
      <path
         style="fill:#f8f8f8"
         d="m 962.18064,591.83963 c -1.925,-0.53301 -5.3,-1.46771 -7.5,-2.07713 -10.60041,-2.93637 -16.93186,-8.23716 -16.12441,-13.49959 0.27427,-1.7875 0.0792,-3.25 -0.43341,-3.25 -1.30571,0 -10.94218,-9.56906 -10.94218,-10.86563 0,-0.5852 -0.9,-1.54567 -2,-2.13437 -1.1,-0.5887 -2,-1.65979 -2,-2.3802 0,-0.7204 -0.9,-2.12431 -2,-3.1198 -1.1,-0.99549 -2,-2.34549 -2,-3 0,-0.65451 -0.9,-2.00451 -2,-3 -1.1,-0.99549 -2,-2.57049 -2,-3.5 0,-0.92951 -0.9,-2.50451 -2,-3.5 -1.1,-0.99549 -2,-2.91277 -2,-4.26063 0,-1.34786 -1.125,-3.78764 -2.5,-5.42174 -1.375,-1.63409 -2.50297,-4.17405 -2.50659,-5.64436 -0.004,-1.4703 -0.90066,-4.02327 -1.99341,-5.67327 -1.09275,-1.65 -1.98979,-4.63312 -1.99341,-6.62916 -0.004,-1.99603 -1.16717,-6.16419 -2.58565,-9.26256 -1.70834,-3.73151 -2.86906,-8.58325 -3.43804,-14.37084 -0.47244,-4.80559 -1.33686,-11.16136 -1.92094,-14.12393 -2.70878,-13.73952 0.44044,-40.80596 6.38346,-54.86351 1.91828,-4.5375 3.05282,-8.25 2.52119,-8.25 -1.63567,0 -1.06488,-4.32656 1.02243,-7.75 1.48356,-2.43322 2.69219,-3.25 4.80917,-3.25 1.8701,0 3.82219,-1.05515 5.7647,-3.11594 31.74316,-33.67616 98.49725,-22.46808 121.44055,20.38997 13.6198,25.44162 16.6229,40.61194 15.4752,78.17394 -0.5455,17.8553 -0.9234,21.50339 -2.5594,24.71016 -1.0556,2.06921 -1.921,5.24262 -1.923,7.05203 0,1.80941 -0.9021,4.76322 -2,6.56401 -1.098,1.80079 -1.9963,4.31855 -1.9963,5.59501 0,1.27647 -0.9,3.13533 -2,4.13082 -1.1,0.99549 -2,2.57049 -2,3.5 0,0.92951 -0.9,2.50451 -2,3.5 -1.1,0.99549 -2,2.34549 -2,3 0,0.65451 -0.9,2.00451 -2,3 -1.1,0.99549 -2,2.23447 -2,2.75331 0,0.51883 -2.5881,3.51542 -5.7514,6.65909 -3.8335,3.80982 -5.6295,6.34821 -5.386,7.61242 0.6365,3.30543 -2.7928,8.04731 -7.6855,10.627 -4.4075,2.32392 -6.8383,3.15896 -16.79308,5.76901 -5.01154,1.31397 -28.53812,1.24765 -33.38398,-0.0941 z m 31.62335,-17.10868 c 12.04351,-6.16683 19.26681,-19.50433 21.35721,-39.43532 0.5066,-4.83049 1.6478,-14.18272 2.5358,-20.78272 2.1276,-15.81148 1.6942,-56.57459 -0.6751,-63.5 -0.8467,-2.475 -2.5881,-8.775 -3.8697,-14 -6.7813,-27.64774 -36.82439,-42.34974 -69.4757,-33.99894 -22.98646,5.87894 -35.57859,28.34567 -26.62217,47.49894 6.05188,12.94194 8.86069,17.90105 11.80885,20.8492 3.95974,3.95975 5.43623,7.45744 6.39562,15.1508 3.18711,25.55725 5.99383,43.78279 6.92997,45 0.423,0.55 1.08156,3.925 1.46346,7.5 3.23815,30.31224 27.27553,47.43164 50.15176,35.71804 z"
         id="path220" />
      <path
         style="fill:#f3f3f3"
         d="m 970.18064,577.13566 c -15.05046,-4.94317 -24.42274,-18.41166 -26.52841,-38.12275 -0.3819,-3.575 -1.04046,-6.95 -1.46346,-7.5 -0.93614,-1.21721 -3.74286,-19.44275 -6.92997,-45 -0.95939,-7.69336 -2.43588,-11.19105 -6.39562,-15.1508 -2.94816,-2.94815 -5.75697,-7.90726 -11.80885,-20.8492 -8.95642,-19.15327 3.63571,-41.62 26.62217,-47.49894 32.65131,-8.3508 62.6944,6.3512 69.4757,33.99894 1.2816,5.225 3.023,11.525 3.8697,14 2.3693,6.92541 2.8027,47.68852 0.6751,63.5 -0.888,6.6 -2.0292,15.95223 -2.5358,20.78272 -3.2039,30.54781 -23.0775,49.03388 -44.98056,41.84003 z m 15.91956,-7.09968 c 8.45496,-2.42485 15.3024,-10.12231 19.0103,-21.37025 7.6984,-23.35243 8.0621,-97.06899 0.5599,-113.45599 -1.3694,-2.99118 -2.4898,-6.02287 -2.4898,-6.73709 0,-13.83096 -37.10345,-25.09765 -59.5452,-18.08126 -16.19743,5.06411 -26.42009,24.89601 -19.19002,37.22853 3.34583,5.70707 6.94249,10.41945 11.76059,15.40886 8.21041,8.5023 8.58863,9.89942 10.41825,38.48413 0.88009,13.75 2.01972,27.025 2.5325,29.5 0.51279,2.475 1.23318,6.95704 1.60086,9.9601 0.36769,3.00305 0.99656,6.15305 1.39749,7 5.08359,10.73881 5.87582,11.93262 11.19163,16.86468 5.95024,5.5207 14.67734,7.5145 22.7535,5.19829 z"
         id="path218" />
      <path
         style="fill:#efefef"
         d="m 970.80541,569.5438 c -3.47127,-1.23733 -9.03035,-5.54879 -12.20568,-9.46636 -0.99211,-1.22402 -3.71502,-6.33823 -6.44466,-12.10443 -0.40093,-0.84695 -1.0298,-3.99695 -1.39749,-7 -0.36768,-3.00306 -1.08807,-7.4851 -1.60086,-9.9601 -0.51278,-2.475 -1.65241,-15.75 -2.5325,-29.5 -1.82962,-28.58471 -2.20784,-29.98183 -10.41825,-38.48413 -4.8181,-4.98941 -8.41476,-9.70179 -11.76059,-15.40886 -7.23007,-12.33252 2.99259,-32.16442 19.19002,-37.22853 22.44175,-7.01639 59.5452,4.2503 59.5452,18.08126 0,0.71422 1.1204,3.74591 2.4898,6.73709 7.5022,16.387 7.1385,90.10356 -0.5599,113.45599 -5.83076,17.68755 -19.65409,26.1004 -34.30509,20.87807 z m 16.97736,-5.43001 c 17.44353,-10.63688 24.21803,-105.398 9.48818,-132.71996 -11.27222,-20.90842 -44.83437,-24.69112 -64.46978,-7.26622 l -4.12053,3.65665 v 7.96388 7.96389 l 4.94289,5.90044 c 2.71859,3.24524 5.9362,6.80044 7.15025,7.90044 9.06425,8.21273 11.19189,15.51039 12.3909,42.5 1.69637,38.18506 3.82379,47.60534 13.73544,60.82112 4.14384,5.52521 14.52621,7.15584 20.88265,3.27976 z m -12.618,-6.98724 c -0.009,-0.3375 -0.002,-26.0961 0.0156,-57.24132 0.0379,-68.35896 2.81705,-59.87232 -19.60672,-59.87232 h -18.39301 v -4.25 -4.25 h 23 23 v 63.11364 63.11363 h -4 c -2.2,0 -4.00714,-0.27613 -4.01587,-0.61363 z"
         id="path216" />
      <path
         style="fill:#e9e9e9"
         d="m 971.53577,565.02064 c -10.9642,-4.42428 -16.55922,-24.22275 -18.37109,-65.00773 -1.19901,-26.98961 -3.32665,-34.28727 -12.3909,-42.5 -1.21405,-1.1 -4.43166,-4.6552 -7.15025,-7.90044 l -4.94289,-5.90044 v -7.96389 -7.96388 l 4.12053,-3.65665 c 19.63541,-17.4249 53.19756,-13.6422 64.46978,7.26622 7.33155,13.59908 9.96235,76.35007 4.44475,106.01985 -3.99235,21.46814 -16.66509,33.06047 -30.17993,27.60696 z m 14.00369,-2.12536 c 3.93032,-1.79077 8.48337,-15.09908 10.18956,-29.78349 0.22998,-1.97938 0.6957,-5.75669 1.03493,-8.39402 4.35555,-33.86175 -0.16655,-89.29597 -8.03008,-98.43788 -9.22852,-10.72879 -53.72003,-7.38168 -57.58597,4.33222 -2.71167,8.21645 0.11856,14.16238 8.53274,17.9261 15.03119,6.72357 19.87146,20.18274 21.02201,58.45513 0.30556,10.16424 0.74648,19.38924 0.97982,20.5 0.23335,1.11077 0.67937,4.1632 0.99115,6.78319 0.31179,2.62 1.03505,5.995 1.60725,7.5 0.5722,1.50501 0.97815,2.85523 0.9021,3.00049 -0.41957,0.80144 2.44305,12.15883 3.66416,14.53748 2.26818,4.41829 10.82537,6.25395 16.69233,3.58078 z m -2.35906,-68.18207 0.49976,-64.2003 0.25777,63.44247 c 0.14177,34.89336 -0.0831,63.7835 -0.49976,64.20031 -0.41664,0.4168 -0.53264,-28.13231 -0.25777,-63.44248 z m -8.75833,4.7497 c -0.18097,-42.76382 -0.54193,-57.3505 -1.44143,-58.25 -0.91182,-0.91182 -0.9164,-1.2 -0.019,-1.2 2.14276,0 2.27457,4.0133 1.987,60.5 l -0.28508,56 -0.24144,-57.05 z m -37.57476,-59.11667 c -0.91541,-0.9154 -0.84491,-9.10479 0.0833,-9.68027 0.4125,-0.25574 0.59635,1.70884 0.40856,4.36573 -0.32797,4.64025 -0.2294,4.84749 2.5,5.25613 2.75324,0.41221 2.76126,0.43007 0.25811,0.57525 -1.42084,0.0824 -2.88334,-0.15017 -3.25,-0.51684 z m 13.08333,-9.07921 c 5.6375,-0.17825 14.8625,-0.17825 20.5,0 5.6375,0.17825 1.025,0.32409 -10.25,0.32409 -11.275,0 -15.8875,-0.14584 -10.25,-0.32409 z"
         id="path214" />
      <path
         style="fill:#e0e0e0"
         d="m 972.483,563.00112 c -3.0197,-1.21608 -8.7348,-15.48349 -7.30003,-18.2241 0.0761,-0.14526 -0.3299,-1.49548 -0.9021,-3.00049 -0.5722,-1.505 -1.29546,-4.88 -1.60725,-7.5 -0.31178,-2.61999 -0.7578,-5.67242 -0.99115,-6.78319 -0.23334,-1.11076 -0.67426,-10.33576 -0.97982,-20.5 -1.15055,-38.27239 -5.99082,-51.73156 -21.02201,-58.45513 -8.41418,-3.76372 -11.24441,-9.70965 -8.53274,-17.9261 3.86594,-11.7139 48.35745,-15.06101 57.58597,-4.33222 7.86353,9.14191 12.38563,64.57613 8.03008,98.43788 -0.33923,2.63733 -0.80495,6.41464 -1.03493,8.39402 -3.00484,25.86128 -10.21804,35.13588 -23.24602,29.88933 z m 11.19998,-1.36626 c 2.44871,-1.79054 -2.68973,-3.17898 -7.69581,-2.07946 -3.87588,0.85129 -1.46869,3.45751 3.19347,3.45751 1.43976,0 3.46581,-0.62012 4.50234,-1.37805 z m -10.99491,-4.87195 c 0.30004,-1.2375 0.42112,-27.675 0.26905,-58.75 l -0.27648,-56.5 -15.5,-0.53971 -15.5,-0.53971 15.12756,-0.21029 c 19.52552,-0.27143 17.30993,-7.85447 17.61425,60.28625 l 0.25819,57.81135 4.5,-2e-5 4.5,-10e-6 0.2574,-63.65393 0.2574,-63.65393 h -23.0074 c -12.65407,0 -23.3449,-0.008 -23.7574,-0.0177 -1.72465,-0.0406 -1.39962,8.43508 0.37319,9.73139 1.63044,1.19225 1.59884,1.28631 -0.43206,1.28631 -2.03407,0 -2.19113,-0.47428 -2.19113,-6.61663 0,-6.37369 0.0826,-6.59449 2.25,-6.01366 1.2375,0.33164 12.4875,0.60913 25,0.61664 l 22.75,0.0136 v 64.5 c 0,62.6486 0.23725,67.66225 2.96099,62.5729 3.83007,-7.15657 4.26591,-119.62518 0.48856,-126.0729 -4.88688,-8.3416 -45.47823,-10.13701 -53.58509,-2.37014 -6.75738,6.47398 -2.74723,15.62889 7.63554,17.43141 11.93429,2.07188 14.96058,3.5519 18.32303,8.96095 5.02699,8.08673 5.2466,9.98551 6.18529,53.47778 0.48669,22.55 1.10681,41.9 1.37805,43 0.27124,1.1 0.75385,3.2375 1.07245,4.75 0.70061,3.32596 2.29983,3.58825 3.04861,0.5 z"
         id="path212" />
      <path
         style="fill:#d3d3d3"
         d="m 974.6783,561.63486 c -2.44871,-1.79054 2.68973,-3.17898 7.69581,-2.07946 3.87588,0.85129 1.46869,3.45751 -3.19347,3.45751 -1.43976,0 -3.46581,-0.62012 -4.50234,-1.37805 z m -5.03884,-5.37195 c -0.3186,-1.5125 -0.80121,-3.65 -1.07245,-4.75 -0.27124,-1.1 -0.89136,-20.45 -1.37805,-43 -0.93869,-43.49227 -1.1583,-45.39105 -6.18529,-53.47778 -3.36245,-5.40905 -6.38874,-6.88907 -18.32303,-8.96095 -10.38277,-1.80252 -14.39292,-10.95743 -7.63554,-17.43141 8.10686,-7.76687 48.69821,-5.97146 53.58509,2.37014 3.77735,6.44772 3.34151,118.91633 -0.48856,126.0729 -2.62221,4.89964 -2.95428,0.90985 -2.73185,-32.8229 l 0.22914,-34.75 0.52086,32.5 c 0.72763,45.40202 2.00952,37.16323 2.71693,-17.46191 0.69344,-53.54666 -1.34884,-97.99951 -2.95356,-64.28809 l -0.34512,7.25 -0.19869,-8.75 -0.1987,-8.75 -22.75,-0.0136 c -12.5125,-0.008 -23.7625,-0.285 -25,-0.61664 -2.16083,-0.57908 -2.25002,-0.35067 -2.25049,5.76366 l -5e-4,6.36663 18.10157,-0.34893 c 9.95586,-0.19191 18.48505,0.0331 18.95374,0.5 0.4687,0.46691 -5.52211,0.71157 -13.31292,0.54369 -7.7908,-0.16788 -15.30726,0.003 -16.70325,0.37974 l -2.53815,0.68497 2.58147,0.73871 c 1.41982,0.40629 6.90048,1.06252 12.17925,1.45829 15.14491,1.13546 14.57824,-0.76158 14.67746,49.13542 0.0694,34.91695 0.95744,58.40811 2.20793,58.40811 0.45983,0 0.95667,-23.5125 1.10408,-52.25 l 0.26804,-52.25 0.24088,53.66821 c 0.13249,29.51752 -0.0322,54.38002 -0.3661,55.25 -0.93093,2.42597 -2.29116,1.88441 -2.93419,-1.16821 z m 11.95913,-128.11723 c 0.70913,-1.14741 -6.85748,-2.13422 -16.30752,-2.12678 -11.13863,0.009 -24.11043,1.16133 -24.11043,2.14223 0,1.12332 39.72353,1.10813 40.41795,-0.0154 z m 3.661,42.2839 c 0.048,-1.16495 0.28494,-1.4019 0.60416,-0.60417 0.28887,0.72187 0.25335,1.58438 -0.0789,1.91667 -0.33229,0.33229 -0.56864,-0.25834 -0.52522,-1.3125 z"
         id="path210" />
      <path
         style="fill:#c5c5c5"
         d="m 985.96105,522.01291 c -0.62001,-71.86006 -0.19985,-90.75641 1.96959,-88.58141 1.31377,1.31713 0.80704,116.80222 -0.5225,119.08141 -0.9098,1.55964 -1.22842,-5.15586 -1.44709,-30.5 z m -16.12538,17.34189 c -0.36027,-7.51196 -0.68285,-27.64946 -0.71685,-44.75 -0.0992,-49.897 0.46745,-47.99996 -14.67746,-49.13542 -5.27877,-0.39577 -10.75943,-1.052 -12.17925,-1.45829 l -2.58147,-0.73871 2.5,-0.66725 c 1.375,-0.36699 8.8,-0.53787 16.5,-0.37973 l 14,0.28751 -0.0556,3.25 c -0.0305,1.7875 -0.14305,26.65 -0.25,55.25 -0.18925,50.61088 -1.21107,66.03915 -2.53941,38.34189 z M 941.18064,428.16113 c 0,-0.9809 12.9718,-2.13345 24.11043,-2.14223 9.45004,-0.007 17.01665,0.97937 16.30752,2.12678 -0.69442,1.12358 -40.41795,1.13877 -40.41795,0.0154 z"
         id="path208" />
    </g>
  </g>
</svg>
